<svg width="576" height="577" viewBox="0 0 576 577" fill="none" xmlns="http://www.w3.org/2000/svg">
<path d="M576 0.0397949H0V576.04H576V0.0397949Z" fill="#DFE0E5"/>
<path d="M576 36.0476H35.6107V213.614H576V36.0476Z" fill="white"/>
<path d="M437.235 359.033H0V540.023H437.235V359.033Z" fill="white"/>
<path d="M127.313 99.9946V100.054L127.254 99.9946H127.313Z" stroke="black" stroke-miterlimit="10"/>
<path d="M287.995 72.0547V305.46L246.095 263.55L113.924 131.379V504.017H72.0242V72.0547H113.863L246.095 204.287V72.0547H287.995Z" fill="black"/>
<path d="M462.076 72.0547V199.979L351.942 310.123L322.305 339.75L288.005 374.05L247.518 414.538L246.105 415.95L241.869 420.197L240.243 421.822L199.948 462.107H259.222L288.005 433.323L301.122 420.197L351.942 369.387L462.076 479.541V504.006H503.986V72.0547H462.076ZM462.076 420.268L381.579 339.76L462.076 259.252V420.268Z" fill="black"/>
</svg>
